<svg width="256" height="63" viewBox="0 0 256 63" fill="none" xmlns="http://www.w3.org/2000/svg">
<path d="M13.5349 53.5076C11.8397 53.5076 10.2401 53.2615 8.73619 52.7693C7.25965 52.2498 5.96085 51.4295 4.83977 50.3084C3.71869 49.1873 2.83003 47.7108 2.17379 45.8788C1.5449 44.0468 1.23045 41.8046 1.23045 39.1523C1.23045 36.5 1.5449 34.2579 2.17379 32.4259C2.83003 30.5939 3.71869 29.1173 4.83977 27.9962C5.96085 26.8752 7.25965 26.0685 8.73619 25.5764C10.2401 25.0568 11.8397 24.7971 13.5349 24.7971H27.48V29.7189H14.3552C13.3435 29.7189 12.3865 29.8693 11.4842 30.17C10.5819 30.4708 9.78891 30.9903 9.10533 31.7286C8.44909 32.4395 7.92956 33.3966 7.54676 34.5997C7.16395 35.8028 6.97255 37.3203 6.97255 39.1523C6.97255 40.9843 7.16395 42.5019 7.54676 43.705C7.92956 44.9081 8.44909 45.8788 9.10533 46.617C9.78891 47.328 10.5819 47.8338 11.4842 48.1346C12.3865 48.4354 13.3435 48.5858 14.3552 48.5858H21.7379V41.6132H15.9958V36.6914H27.48V53.5076H13.5349ZM43.4951 53.5076C41.7998 53.5076 40.2002 53.2615 38.6964 52.7693C37.2198 52.2498 35.921 51.4295 34.7999 50.3084C33.6789 49.1873 32.7902 47.7108 32.134 45.8788C31.5051 44.0468 31.1906 41.8046 31.1906 39.1523C31.1906 36.5 31.5051 34.2579 32.134 32.4259C32.7902 30.5939 33.6789 29.1173 34.7999 27.9962C35.921 26.8752 37.2198 26.0685 38.6964 25.5764C40.2002 25.0568 41.7998 24.7971 43.4951 24.7971H54.159V29.7189H44.3154C43.4131 29.7189 42.5654 29.8419 41.7725 30.088C40.9795 30.3068 40.2549 30.6896 39.5987 31.2364C38.9698 31.756 38.4229 32.4669 37.9581 33.3692C37.5206 34.2442 37.2198 35.3516 37.0558 36.6914H54.159V41.6132H37.0558C37.2198 42.953 37.5206 44.0741 37.9581 44.9765C38.4229 45.8514 38.9698 46.5624 39.5987 47.1092C40.2549 47.6288 40.9795 48.0116 41.7725 48.2576C42.5654 48.4764 43.4131 48.5858 44.3154 48.5858H54.159V53.5076H43.4951ZM70.1709 53.5076C68.4756 53.5076 66.876 53.2615 65.3721 52.7693C63.8956 52.2498 62.5968 51.4295 61.4757 50.3084C60.3546 49.1873 59.466 47.7108 58.8097 45.8788C58.1808 44.0468 57.8664 41.8046 57.8664 39.1523C57.8664 36.5 58.1808 34.2579 58.8097 32.4259C59.466 30.5939 60.3546 29.1173 61.4757 27.9962C62.5968 26.8752 63.8956 26.0685 65.3721 25.5764C66.876 25.0568 68.4756 24.7971 70.1709 24.7971H80.8348V29.7189H70.9912C70.0888 29.7189 69.2412 29.8419 68.4483 30.088C67.6553 30.3068 66.9307 30.6896 66.2745 31.2364C65.6456 31.756 65.0987 32.4669 64.6339 33.3692C64.1964 34.2442 63.8956 35.3516 63.7315 36.6914H80.8348V41.6132H63.7315C63.8956 42.953 64.1964 44.0741 64.6339 44.9765C65.0987 45.8514 65.6456 46.5624 66.2745 47.1092C66.9307 47.6288 67.6553 48.0116 68.4483 48.2576C69.2412 48.4764 70.0888 48.5858 70.9912 48.5858H80.8348V53.5076H70.1709ZM85.7726 24.7971H91.5147V37.8809L102.958 24.7971H110.382L97.5849 39.1523L110.382 53.5076H102.958L91.5147 40.4238V53.5076H85.7726V24.7971ZM121.052 41.3671L109.978 24.7971H116.95L123.923 35.9942L130.895 24.7971H137.868L126.794 41.3671V53.5076H121.052V41.3671ZM136.562 24.7971H143.329L149.236 43.2538L154.28 24.7971H160.679L165.683 43.2538L171.63 24.7971H178.397L168.8 53.5076H162.278L157.48 35.9942C156.687 38.8652 155.88 41.791 155.06 44.7714C154.239 47.7518 153.446 50.6639 152.681 53.5076H146.159L136.562 24.7971ZM178.257 39.1523C178.257 36.3906 178.613 34.0528 179.324 32.1388C180.062 30.2247 181.06 28.6798 182.318 27.5041C183.575 26.3283 185.052 25.4807 186.747 24.9611C188.47 24.4416 190.302 24.1819 192.243 24.1819C194.13 24.1819 195.907 24.4416 197.575 24.9611C199.271 25.4807 200.747 26.3283 202.005 27.5041C203.29 28.6798 204.302 30.2247 205.04 32.1388C205.806 34.0528 206.188 36.3906 206.188 39.1523C206.188 41.914 205.806 44.2519 205.04 46.1659C204.302 48.0526 203.29 49.5838 202.005 50.7596C200.747 51.9353 199.271 52.783 197.575 53.3025C195.907 53.822 194.13 54.0818 192.243 54.0818C190.302 54.0818 188.47 53.822 186.747 53.3025C185.052 52.783 183.575 51.9353 182.318 50.7596C181.06 49.5838 180.062 48.0526 179.324 46.1659C178.613 44.2519 178.257 41.914 178.257 39.1523ZM192.243 48.5037C193.282 48.5037 194.253 48.367 195.155 48.0936C196.085 47.7928 196.892 47.287 197.575 46.576C198.259 45.8378 198.792 44.8671 199.175 43.664C199.585 42.4609 199.79 40.957 199.79 39.1523C199.79 37.3477 199.585 35.8438 199.175 34.6407C198.792 33.4102 198.259 32.4395 197.575 31.7286C196.892 31.0177 196.085 30.5118 195.155 30.2111C194.253 29.9103 193.282 29.7599 192.243 29.7599C191.204 29.7599 190.22 29.9103 189.29 30.2111C188.361 30.5118 187.554 31.0177 186.87 31.7286C186.187 32.4395 185.64 33.4102 185.23 34.6407C184.847 35.8438 184.656 37.3477 184.656 39.1523C184.656 40.957 184.847 42.4609 185.23 43.664C185.64 44.8671 186.187 45.8378 186.87 46.576C187.554 47.287 188.361 47.7928 189.29 48.0936C190.22 48.367 191.204 48.5037 192.243 48.5037ZM208.557 24.7971H214.914V41.9413C214.914 43.0898 215.092 44.0468 215.448 44.8124C215.803 45.578 216.282 46.1932 216.883 46.6581C217.512 47.1229 218.237 47.451 219.057 47.6424C219.877 47.8338 220.766 47.9295 221.723 47.9295H229.27V53.5076H221.723C219.918 53.5076 218.223 53.3162 216.637 52.9334C215.051 52.5506 213.657 51.908 212.453 51.0057C211.25 50.1033 210.293 48.9139 209.582 47.4374C208.899 45.9608 208.557 44.1288 208.557 41.9413V24.7971ZM231.267 38.332C231.267 35.8164 231.582 33.6973 232.211 31.9747C232.867 30.2521 233.756 28.8576 234.877 27.7912C235.998 26.7248 237.31 25.9592 238.814 25.4943C240.318 25.0295 241.918 24.7971 243.613 24.7971H254.4V30.3751H244.433C243.613 30.3751 242.82 30.4845 242.054 30.7032C241.316 30.8946 240.646 31.2228 240.045 31.6876C239.47 32.1524 238.978 32.7677 238.568 33.5333C238.185 34.2989 237.912 35.2422 237.748 36.3633H254.4V41.9413H237.625V53.5076H231.267V38.332Z" fill="white"/>
<path d="M195.847 4.79606V18.5075C195.847 19.6121 196.742 20.5075 197.847 20.5075H251.951C253.056 20.5075 253.951 19.6121 253.951 18.5075V3.37756C253.951 1.8575 252.323 0.89306 250.99 1.62389L217.859 19.7899C217.083 20.2156 216.119 20.0802 215.49 19.4572L199.254 3.37513C197.992 2.12445 195.847 3.01885 195.847 4.79606Z" fill="#FE5F30"/>
</svg>
